<svg xmlns="http://www.w3.org/2000/svg" xmlns:xlink="http://www.w3.org/1999/xlink" width="132.005" height="104.063" viewBox="0 0 132.005 104.063">
  <defs>
    <linearGradient id="linear-gradient" x1="0.5" x2="0.5" y2="1" gradientUnits="objectBoundingBox">
      <stop offset="0" stop-color="#57b2f8"/>
      <stop offset="1" stop-color="#1321e0"/>
    </linearGradient>
  </defs>
  <g id="Group_271" data-name="Group 271" transform="translate(-81.254 -555.961)">
    <g id="Group_272" data-name="Group 272">
      <path id="Path_976" data-name="Path 976" d="M-13.31,1.465q-9.366,0-9.366-11.074a42.216,42.216,0,0,1,.938-7.91l5.684-28.77a58.977,58.977,0,0,0,1.348-8.789q0-3.633-3.457-3.633-5.742,0-17.461,12.832l1.055-5.391q12.8-13.77,23.07-13.77,8.512,0,8.512,8.789A58.724,58.724,0,0,1-4.4-46.289L-10.19-17.461a32.743,32.743,0,0,0-.767,5.508q0,4.746,3.454,4.746,4.391,0,13.32-10.635C11.769-24.932-2.774,1.465-13.31,1.465Z" transform="translate(117 642)" fill="url(#linear-gradient)"/>
      <path id="Path_977" data-name="Path 977" d="M-64.746,37.969l7.91-8.379a27.891,27.891,0,0,0,12.422,2.93q14.941,0,19.863-24.744l9.023-45.441a81.578,81.578,0,0,0,1.582-11.551q0-4.924-3.75-4.924-2.7,0-9.492,2.051l.762-3.574L2.168-65.039-2.285-46.113l-2.871,14.3h1Q2.52-46.582,11.807-55.811t17.432-9.229q12.48,0,12.48,15.469,0,18.105-14.268,34.277T-2.812.879A66.787,66.787,0,0,1-9.492.234Q-10.137.176-11.484,0-16.113,18.926-27.51,28.975T-55.781,39.023A41.4,41.4,0,0,1-64.746,37.969Zm54.9-46.23A36.113,36.113,0,0,0,4.8-5.039q10.605,0,16.992-13.477,7.559-15.937,7.559-28.652,0-9.2-5.449-9.2-4.98,0-14.414,10.576a123,123,0,0,0-16.7,24.229Z" transform="translate(146 621)" fill="url(#linear-gradient)"/>
    </g>
    <path id="Path_978" data-name="Path 978" d="M-21.6,0h-6.926L-39.7-19.441h-.158q.334,5.15.334,7.348V0H-44.4V-25.7h6.873L-26.36-6.451h.123q-.264-5.01-.264-7.084V-25.7h4.9Zm7.546-9.861a8.248,8.248,0,0,0,.958,4.412,3.426,3.426,0,0,0,3.12,1.494A3.372,3.372,0,0,0-6.887-5.44a8.367,8.367,0,0,0,.94-4.421A8.117,8.117,0,0,0-6.9-14.238,3.432,3.432,0,0,0-10.007-15.7a3.421,3.421,0,0,0-3.094,1.45A8.11,8.11,0,0,0-14.05-9.861Zm13.588,0A10.561,10.561,0,0,1-2.994-2.355,9.178,9.178,0,0,1-10.042.352,9.86,9.86,0,0,1-15.035-.888a8.246,8.246,0,0,1-3.322-3.56,11.961,11.961,0,0,1-1.16-5.414q0-4.816,2.514-7.488a9.231,9.231,0,0,1,7.066-2.672,9.916,9.916,0,0,1,4.992,1.23,8.213,8.213,0,0,1,3.322,3.533A11.85,11.85,0,0,1-.462-9.861ZM9.475-3.92a11.622,11.622,0,0,0,3.375-.615v3.99a12.034,12.034,0,0,1-4.922.9q-3.217,0-4.685-1.626A7.077,7.077,0,0,1,1.775-6.152v-9.475H-.791v-2.268l2.953-1.793,1.547-4.148H7.137v4.184h5.5v4.025h-5.5v9.475a2.093,2.093,0,0,0,.642,1.688A2.531,2.531,0,0,0,9.475-3.92ZM22.189-16.207a3.4,3.4,0,0,0-2.672,1.081,5,5,0,0,0-1.107,3.067h7.523A4.469,4.469,0,0,0,24.9-15.126,3.511,3.511,0,0,0,22.189-16.207ZM22.945.352a10.143,10.143,0,0,1-7.418-2.619q-2.672-2.619-2.672-7.418,0-4.939,2.47-7.638a8.794,8.794,0,0,1,6.829-2.7,8.656,8.656,0,0,1,6.486,2.373,8.978,8.978,0,0,1,2.32,6.557v2.6H18.287A5.161,5.161,0,0,0,19.64-4.922a4.762,4.762,0,0,0,3.551,1.283,14.741,14.741,0,0,0,3.357-.369,16.8,16.8,0,0,0,3.3-1.178v4.148A12.589,12.589,0,0,1,26.847.009,18.952,18.952,0,0,1,22.945.352ZM46.259-5.836a5.411,5.411,0,0,1-2.1,4.605Q42.058.352,37.874.352a19.738,19.738,0,0,1-3.656-.29,13.83,13.83,0,0,1-2.83-.853v-4.43a18.69,18.69,0,0,0,3.366,1.178,13.63,13.63,0,0,0,3.3.475q2.918,0,2.918-1.687a1.408,1.408,0,0,0-.387-1.028,5.607,5.607,0,0,0-1.336-.9q-.949-.5-2.531-1.169a15.9,15.9,0,0,1-3.331-1.758,4.948,4.948,0,0,1-1.547-1.854,6.122,6.122,0,0,1-.483-2.575,4.668,4.668,0,0,1,2.03-4.052,9.89,9.89,0,0,1,5.757-1.433,16.341,16.341,0,0,1,6.908,1.547l-1.617,3.867q-1.477-.633-2.76-1.037a8.666,8.666,0,0,0-2.619-.4q-2.373,0-2.373,1.283a1.509,1.509,0,0,0,.765,1.248,20.8,20.8,0,0,0,3.349,1.564,15.557,15.557,0,0,1,3.375,1.74A5.147,5.147,0,0,1,45.749-8.35,5.726,5.726,0,0,1,46.259-5.836Z" transform="translate(167 655)" fill="#262626"/>
  </g>
</svg>
