<svg id="image" xmlns="http://www.w3.org/2000/svg" width="19.776" height="19.776" viewBox="0 0 19.776 19.776">
  <g id="Group_262" data-name="Group 262">
    <g id="Group_261" data-name="Group 261">
      <path id="Path_970" data-name="Path 970" d="M17.249,0H2.527A2.53,2.53,0,0,0,0,2.527V17.249a2.53,2.53,0,0,0,2.527,2.527H17.249a2.53,2.53,0,0,0,2.527-2.527V2.527A2.53,2.53,0,0,0,17.249,0Zm1.362,17.249a1.364,1.364,0,0,1-1.362,1.362H2.527a1.364,1.364,0,0,1-1.362-1.362V15.124L5,11.862a.376.376,0,0,1,.485,0l2.4,1.994a.582.582,0,0,0,.784-.037L14.375,8.1a.377.377,0,0,1,.56.029l3.676,4.526v4.591Zm0-6.439L15.839,7.4a1.542,1.542,0,0,0-2.288-.117L8.22,12.618,6.228,10.963a1.539,1.539,0,0,0-1.984.012l-3.079,2.62V2.527A1.364,1.364,0,0,1,2.527,1.165H17.249a1.364,1.364,0,0,1,1.362,1.362Z" fill="#3930d8"/>
    </g>
  </g>
  <g id="Group_264" data-name="Group 264" transform="translate(3.417 2.433)">
    <g id="Group_263" data-name="Group 263">
      <path id="Path_971" data-name="Path 971" d="M91.269,62.995A2.808,2.808,0,1,0,94.078,65.8,2.812,2.812,0,0,0,91.269,62.995Zm0,4.452A1.644,1.644,0,1,1,92.913,65.8,1.646,1.646,0,0,1,91.269,67.447Z" transform="translate(-88.461 -62.995)" fill="#3930d8"/>
    </g>
  </g>
</svg>
