<svg xmlns="http://www.w3.org/2000/svg" width="22.811" height="17.954" viewBox="0 0 22.811 17.954">
  <g id="photo" transform="translate(0 -44.8)">
    <g id="Group_266" data-name="Group 266" transform="translate(0 44.8)">
      <g id="Group_265" data-name="Group 265" transform="translate(0 0)">
        <path id="Path_972" data-name="Path 972" d="M22.053,47.6a2.453,2.453,0,0,0-1.8-.759h-3.6v-.043a1.947,1.947,0,0,0-.585-1.409,1.984,1.984,0,0,0-1.409-.585H8.153a2,2,0,0,0-2.017,1.995v.043H2.559a2.453,2.453,0,0,0-1.8.759A2.578,2.578,0,0,0,0,49.4V60.2A2.453,2.453,0,0,0,.759,62a2.578,2.578,0,0,0,1.8.759H20.253a2.453,2.453,0,0,0,1.8-.759,2.578,2.578,0,0,0,.759-1.8V49.4A2.453,2.453,0,0,0,22.053,47.6Zm-.369,12.6h-.022a1.407,1.407,0,0,1-1.409,1.409H2.559A1.407,1.407,0,0,1,1.149,60.2V49.4a1.407,1.407,0,0,1,1.409-1.409H6.744a.583.583,0,0,0,.585-.585v-.629a.816.816,0,0,1,.846-.846h6.483a.816.816,0,0,1,.846.846V47.4a.583.583,0,0,0,.585.585h4.185A1.407,1.407,0,0,1,21.684,49.4Z" transform="translate(0 -44.8)" fill="#3930d8"/>
        <path id="Path_973" data-name="Path 973" d="M117.334,130.8a5.33,5.33,0,1,0,3.773,1.561A5.344,5.344,0,0,0,117.334,130.8Zm2.949,8.3a4.188,4.188,0,0,1-5.9,0,4.145,4.145,0,0,1-1.214-2.949,4.238,4.238,0,0,1,1.214-2.949,4.145,4.145,0,0,1,2.949-1.214,4.238,4.238,0,0,1,2.949,1.214,4.145,4.145,0,0,1,1.214,2.949A4.058,4.058,0,0,1,120.283,139.1Z" transform="translate(-105.928 -126.138)" fill="#3930d8"/>
        <circle id="Ellipse_46" data-name="Ellipse 46" cx="1.063" cy="1.063" r="1.063" transform="translate(18.063 4.64)" fill="#3930d8"/>
      </g>
    </g>
  </g>
</svg>
